<svg id="Layer_1" data-name="Layer 1" xmlns="http://www.w3.org/2000/svg" viewBox="0 0 122.88 116.87">
  <defs>
    <style>
      .cls-1{fill:red;fill-rule:evenodd;}
      .cls-2{fill:white;}
    </style>
  </defs>
  <title>verified-symbol</title>
  <polygon class="cls-1" points="61.37 8.24 80.43 0 90.88 17.79 111.15 22.32 109.15 42.85 122.88 58.43 109.2 73.87 111.15 94.55 91 99 80.43 116.87 61.51 108.62 42.45 116.87 32 99.08 11.73 94.55 13.73 74.01 0 58.43 13.68 42.99 11.73 22.32 31.88 17.87 42.45 0 61.37 8.24 61.37 8.24"/>
  <path class="cls-2" d="M82.5 46.5l-9-9-12 12-12-12-9 9 12 12-12 12 9 9 12-12 12 12 9-9-12-12z"/>
</svg>
